# RF Sculpture - Cycle 396
o RF_Cloud
v 23 22 48
v 24 22 48
v 24 23 48
v 23 23 48
v 23 22 49
v 24 22 49
v 24 23 49
v 23 23 49
f 1 2 3 4
f 5 6 7 8
f 1 2 6 5
f 3 4 8 7
f 1 4 8 5
f 2 3 7 6
v 23 23 48
v 24 23 48
v 24 24 48
v 23 24 48
v 23 23 49
v 24 23 49
v 24 24 49
v 23 24 49
f 9 10 11 12
f 13 14 15 16
f 9 10 14 13
f 11 12 16 15
f 9 12 16 13
f 10 11 15 14
v 24 23 48
v 25 23 48
v 25 24 48
v 24 24 48
v 24 23 49
v 25 23 49
v 25 24 49
v 24 24 49
f 17 18 19 20
f 21 22 23 24
f 17 18 22 21
f 19 20 24 23
f 17 20 24 21
f 18 19 23 22
v 24 24 19
v 25 24 19
v 25 25 19
v 24 25 19
v 24 24 20
v 25 24 20
v 25 25 20
v 24 25 20
f 25 26 27 28
f 29 30 31 32
f 25 26 30 29
f 27 28 32 31
f 25 28 32 29
f 26 27 31 30
v 24 24 48
v 25 24 48
v 25 25 48
v 24 25 48
v 24 24 49
v 25 24 49
v 25 25 49
v 24 25 49
f 33 34 35 36
f 37 38 39 40
f 33 34 38 37
f 35 36 40 39
f 33 36 40 37
f 34 35 39 38
v 24 25 22
v 25 25 22
v 25 26 22
v 24 26 22
v 24 25 23
v 25 25 23
v 25 26 23
v 24 26 23
f 41 42 43 44
f 45 46 47 48
f 41 42 46 45
f 43 44 48 47
f 41 44 48 45
f 42 43 47 46
v 24 25 25
v 25 25 25
v 25 26 25
v 24 26 25
v 24 25 26
v 25 25 26
v 25 26 26
v 24 26 26
f 49 50 51 52
f 53 54 55 56
f 49 50 54 53
f 51 52 56 55
f 49 52 56 53
f 50 51 55 54
v 24 25 27
v 25 25 27
v 25 26 27
v 24 26 27
v 24 25 28
v 25 25 28
v 25 26 28
v 24 26 28
f 57 58 59 60
f 61 62 63 64
f 57 58 62 61
f 59 60 64 63
f 57 60 64 61
f 58 59 63 62
v 24 25 48
v 25 25 48
v 25 26 48
v 24 26 48
v 24 25 49
v 25 25 49
v 25 26 49
v 24 26 49
f 65 66 67 68
f 69 70 71 72
f 65 66 70 69
f 67 68 72 71
f 65 68 72 69
f 66 67 71 70
v 25 25 29
v 26 25 29
v 26 26 29
v 25 26 29
v 25 25 30
v 26 25 30
v 26 26 30
v 25 26 30
f 73 74 75 76
f 77 78 79 80
f 73 74 78 77
f 75 76 80 79
f 73 76 80 77
f 74 75 79 78
v 25 25 31
v 26 25 31
v 26 26 31
v 25 26 31
v 25 25 32
v 26 25 32
v 26 26 32
v 25 26 32
f 81 82 83 84
f 85 86 87 88
f 81 82 86 85
f 83 84 88 87
f 81 84 88 85
f 82 83 87 86
v 25 25 48
v 26 25 48
v 26 26 48
v 25 26 48
v 25 25 49
v 26 25 49
v 26 26 49
v 25 26 49
f 89 90 91 92
f 93 94 95 96
f 89 90 94 93
f 91 92 96 95
f 89 92 96 93
f 90 91 95 94
v 25 26 33
v 26 26 33
v 26 27 33
v 25 27 33
v 25 26 34
v 26 26 34
v 26 27 34
v 25 27 34
f 97 98 99 100
f 101 102 103 104
f 97 98 102 101
f 99 100 104 103
f 97 100 104 101
f 98 99 103 102
v 25 26 34
v 26 26 34
v 26 27 34
v 25 27 34
v 25 26 35
v 26 26 35
v 26 27 35
v 25 27 35
f 105 106 107 108
f 109 110 111 112
f 105 106 110 109
f 107 108 112 111
f 105 108 112 109
f 106 107 111 110
v 25 26 36
v 26 26 36
v 26 27 36
v 25 27 36
v 25 26 37
v 26 26 37
v 26 27 37
v 25 27 37
f 113 114 115 116
f 117 118 119 120
f 113 114 118 117
f 115 116 120 119
f 113 116 120 117
f 114 115 119 118
v 25 26 37
v 26 26 37
v 26 27 37
v 25 27 37
v 25 26 38
v 26 26 38
v 26 27 38
v 25 27 38
f 121 122 123 124
f 125 126 127 128
f 121 122 126 125
f 123 124 128 127
f 121 124 128 125
f 122 123 127 126
v 25 26 38
v 26 26 38
v 26 27 38
v 25 27 38
v 25 26 39
v 26 26 39
v 26 27 39
v 25 27 39
f 129 130 131 132
f 133 134 135 136
f 129 130 134 133
f 131 132 136 135
f 129 132 136 133
f 130 131 135 134
v 25 26 39
v 26 26 39
v 26 27 39
v 25 27 39
v 25 26 40
v 26 26 40
v 26 27 40
v 25 27 40
f 137 138 139 140
f 141 142 143 144
f 137 138 142 141
f 139 140 144 143
f 137 140 144 141
f 138 139 143 142
v 25 26 40
v 26 26 40
v 26 27 40
v 25 27 40
v 25 26 41
v 26 26 41
v 26 27 41
v 25 27 41
f 145 146 147 148
f 149 150 151 152
f 145 146 150 149
f 147 148 152 151
f 145 148 152 149
f 146 147 151 150
v 25 26 41
v 26 26 41
v 26 27 41
v 25 27 41
v 25 26 42
v 26 26 42
v 26 27 42
v 25 27 42
f 153 154 155 156
f 157 158 159 160
f 153 154 158 157
f 155 156 160 159
f 153 156 160 157
f 154 155 159 158
v 25 26 42
v 26 26 42
v 26 27 42
v 25 27 42
v 25 26 43
v 26 26 43
v 26 27 43
v 25 27 43
f 161 162 163 164
f 165 166 167 168
f 161 162 166 165
f 163 164 168 167
f 161 164 168 165
f 162 163 167 166
v 25 26 43
v 26 26 43
v 26 27 43
v 25 27 43
v 25 26 44
v 26 26 44
v 26 27 44
v 25 27 44
f 169 170 171 172
f 173 174 175 176
f 169 170 174 173
f 171 172 176 175
f 169 172 176 173
f 170 171 175 174
v 25 26 44
v 26 26 44
v 26 27 44
v 25 27 44
v 25 26 45
v 26 26 45
v 26 27 45
v 25 27 45
f 177 178 179 180
f 181 182 183 184
f 177 178 182 181
f 179 180 184 183
f 177 180 184 181
f 178 179 183 182
v 25 26 45
v 26 26 45
v 26 27 45
v 25 27 45
v 25 26 46
v 26 26 46
v 26 27 46
v 25 27 46
f 185 186 187 188
f 189 190 191 192
f 185 186 190 189
f 187 188 192 191
f 185 188 192 189
f 186 187 191 190
v 25 26 46
v 26 26 46
v 26 27 46
v 25 27 46
v 25 26 47
v 26 26 47
v 26 27 47
v 25 27 47
f 193 194 195 196
f 197 198 199 200
f 193 194 198 197
f 195 196 200 199
f 193 196 200 197
f 194 195 199 198
v 25 26 47
v 26 26 47
v 26 27 47
v 25 27 47
v 25 26 48
v 26 26 48
v 26 27 48
v 25 27 48
f 201 202 203 204
f 205 206 207 208
f 201 202 206 205
f 203 204 208 207
f 201 204 208 205
f 202 203 207 206
v 25 26 48
v 26 26 48
v 26 27 48
v 25 27 48
v 25 26 49
v 26 26 49
v 26 27 49
v 25 27 49
f 209 210 211 212
f 213 214 215 216
f 209 210 214 213
f 211 212 216 215
f 209 212 216 213
f 210 211 215 214
